<?xml version="1.0" encoding="UTF-8"?>
<svg version="1.1" xmlns="http://www.w3.org/2000/svg" width="64" height="53">
<path d="M0 0 C0.42796875 0.53109375 0.8559375 1.0621875 1.296875 1.609375 C1.956875 2.269375 2.616875 2.929375 3.296875 3.609375 C3.65394531 2.95453125 4.01101562 2.2996875 4.37890625 1.625 C6.296875 -0.390625 6.296875 -0.390625 9.43359375 -0.78125 C10.60535156 -0.73484375 11.77710938 -0.6884375 12.984375 -0.640625 C14.16386719 -0.60453125 15.34335937 -0.5684375 16.55859375 -0.53125 C17.91404297 -0.46164063 17.91404297 -0.46164063 19.296875 -0.390625 C20.286875 1.589375 21.276875 3.569375 22.296875 5.609375 C22.626875 3.629375 22.956875 1.649375 23.296875 -0.390625 C28.246875 -0.390625 33.196875 -0.390625 38.296875 -0.390625 C38.296875 16.769375 38.296875 33.929375 38.296875 51.609375 C34.006875 51.609375 29.716875 51.609375 25.296875 51.609375 C23.976875 48.969375 22.656875 46.329375 21.296875 43.609375 C20.966875 46.249375 20.636875 48.889375 20.296875 51.609375 C15.346875 51.609375 10.396875 51.609375 5.296875 51.609375 C4.966875 50.949375 4.636875 50.289375 4.296875 49.609375 C3.636875 50.269375 2.976875 50.929375 2.296875 51.609375 C-1.26195452 52.16872349 -4.85550494 52.11883317 -8.453125 52.171875 C-9.443125 52.22150391 -10.433125 52.27113281 -11.453125 52.32226562 C-18.43959904 52.42033779 -18.43959904 52.42033779 -21.73095703 50.30786133 C-24.65694737 47.28543353 -26.02004277 44.63408801 -26.2890625 40.42578125 C-26.24982282 39.00661267 -26.17918314 37.58798463 -26.078125 36.171875 C-26.05105469 35.44033203 -26.02398438 34.70878906 -25.99609375 33.95507812 C-25.92616417 32.17187373 -25.81856942 30.39021206 -25.703125 28.609375 C-24.383125 28.279375 -23.063125 27.949375 -21.703125 27.609375 C-22.363125 27.031875 -23.023125 26.454375 -23.703125 25.859375 C-26.69151532 21.00324072 -26.34053678 16.18302216 -25.703125 10.609375 C-24.4697298 7.07965866 -23.36003245 4.26628245 -20.703125 1.609375 C-20.373125 0.949375 -20.043125 0.289375 -19.703125 -0.390625 C-14.25835975 -1.57426962 -4.51008093 -3.68254314 0 0 Z M-10.703125 13.609375 C-11.693125 15.094375 -11.693125 15.094375 -12.703125 16.609375 C-10.62758852 17.1628514 -8.85946536 17.609375 -6.703125 17.609375 C-7.363125 16.289375 -8.023125 14.969375 -8.703125 13.609375 C-9.363125 13.609375 -10.023125 13.609375 -10.703125 13.609375 Z M6.296875 21.609375 C6.296875 23.919375 6.296875 26.229375 6.296875 28.609375 C6.626875 28.609375 6.956875 28.609375 7.296875 28.609375 C7.296875 26.299375 7.296875 23.989375 7.296875 21.609375 C6.966875 21.609375 6.636875 21.609375 6.296875 21.609375 Z M2.296875 22.609375 C2.296875 23.599375 2.296875 24.589375 2.296875 25.609375 C3.286875 25.609375 4.276875 25.609375 5.296875 25.609375 C5.296875 24.619375 5.296875 23.629375 5.296875 22.609375 C4.306875 22.609375 3.316875 22.609375 2.296875 22.609375 Z M-11.703125 33.609375 C-11.703125 34.929375 -11.703125 36.249375 -11.703125 37.609375 C-10.383125 37.609375 -9.063125 37.609375 -7.703125 37.609375 C-8.033125 36.619375 -8.363125 35.629375 -8.703125 34.609375 C-9.693125 34.279375 -10.683125 33.949375 -11.703125 33.609375 Z " fill="#888F90" transform="translate(25.703125,1.390625)"/>
<path d="M0 0 C3.96 0 7.92 0 12 0 C12.99 1.98 13.98 3.96 15 6 C15.33 4.02 15.66 2.04 16 0 C20.95 0 25.9 0 31 0 C31 16.83 31 33.66 31 51 C27.37 51 23.74 51 20 51 C15.545 41.595 15.545 41.595 11 32 C10.67 38.27 10.34 44.54 10 51 C6.7 51 3.4 51 0 51 C0 50.34 0 49.68 0 49 C2.31 49 4.62 49 7 49 C7 39.76 7 30.52 7 21 C9.90827234 23.90827234 11.04660533 25.8447548 12.7421875 29.5078125 C13.25136719 30.57644531 13.76054688 31.64507812 14.28515625 32.74609375 C15.34665485 35.00210429 16.39872784 37.26257344 17.44140625 39.52734375 C17.95316406 40.59339844 18.46492188 41.65945312 18.9921875 42.7578125 C19.44964355 43.7389502 19.90709961 44.72008789 20.37841797 45.73095703 C22.03833257 48.60026106 22.03833257 48.60026106 27 49 C26.505 33.655 26.505 33.655 26 18 C25.67 27.24 25.34 36.48 25 46 C24.34 46 23.68 46 23 46 C21.10070732 42.23089972 19.20622134 38.45940217 17.3125 34.6875 C16.78205078 33.63498047 16.25160156 32.58246094 15.70507812 31.49804688 C15.17978516 30.45068359 14.65449219 29.40332031 14.11328125 28.32421875 C13.63673096 27.37635498 13.16018066 26.42849121 12.66918945 25.4519043 C10.35953658 20.67551377 8.19543435 15.82995558 6 11 C5.67 22.55 5.34 34.1 5 46 C4.34 46 3.68 46 3 46 C3 32.47 3 18.94 3 5 C4.32 5 5.64 5 7 5 C7 4.34 7 3.68 7 3 C4.69 3 2.38 3 0 3 C0 2.01 0 1.02 0 0 Z " fill="#36545E" transform="translate(33,1)"/>
<path d="M0 0 C0.33 0.99 0.66 1.98 1 3 C3.64 3 6.28 3 9 3 C9 3.66 9 4.32 9 5 C7.68 5 6.36 5 5 5 C5 18.53 5 32.06 5 46 C5.66 46 6.32 46 7 46 C7 33.79 7 21.58 7 9 C9.22560689 11.22560689 10.01089995 13.0252789 11.26171875 15.90234375 C14.37543932 22.90850091 17.84709845 29.71495525 21.33398438 36.54101562 C21.80771484 37.47751953 22.28144531 38.41402344 22.76953125 39.37890625 C23.19854736 40.2201001 23.62756348 41.06129395 24.06958008 41.92797852 C25 44 25 44 25 46 C25.66 46 26.32 46 27 46 C26.99476318 45.20940186 26.98952637 44.41880371 26.98413086 43.60424805 C26.96313358 39.96534036 26.95026823 36.3264455 26.9375 32.6875 C26.92912109 31.44419922 26.92074219 30.20089844 26.91210938 28.91992188 C26.8927694 21.55138969 27.16096191 14.32242824 28 7 C28.33 7 28.66 7 29 7 C29 20.86 29 34.72 29 49 C27.35 49 25.7 49 24 49 C22.41524955 46.00074658 20.83246479 43.00045992 19.25 40 C18.8065625 39.16082031 18.363125 38.32164063 17.90625 37.45703125 C17.46796875 36.62558594 17.0296875 35.79414062 16.578125 34.9375 C16.18012695 34.18339844 15.78212891 33.42929687 15.37207031 32.65234375 C13.54487882 29.12020703 11.77846105 25.5569221 10 22 C9.67 30.91 9.34 39.82 9 49 C6.69 49 4.38 49 2 49 C2 49.66 2 50.32 2 51 C5.3 51 8.6 51 12 51 C12 44.07 12 37.14 12 30 C14.04170545 32.72227393 15.4467402 34.64987987 16.82421875 37.6015625 C17.13037109 38.25640625 17.43652344 38.91125 17.75195312 39.5859375 C18.21504883 40.59527344 18.21504883 40.59527344 18.6875 41.625 C19.00783203 42.305625 19.32816406 42.98625 19.65820312 43.6875 C22 48.74058835 22 48.74058835 22 51 C25.63 51 29.26 51 33 51 C33 51.33 33 51.66 33 52 C28.71 52 24.42 52 20 52 C18.68 49.36 17.36 46.72 16 44 C15.67 46.64 15.34 49.28 15 52 C10.05 52 5.1 52 0 52 C-0.33 51.34 -0.66 50.68 -1 50 C-1.66 50.66 -2.32 51.32 -3 52 C-6.55882952 52.55934849 -10.15237994 52.50945817 -13.75 52.5625 C-14.74 52.61212891 -15.73 52.66175781 -16.75 52.71289062 C-23.85729739 52.81265884 -23.85729739 52.81265884 -27.02783203 50.55786133 C-29.98672556 47.30552743 -31.33653792 45.02114209 -31.375 40.5625 C-31.25125 39.386875 -31.1275 38.21125 -31 37 C-30.5978125 37.86625 -30.5978125 37.86625 -30.1875 38.75 C-29.04946754 41.05747896 -29.04946754 41.05747896 -27.375 43.125 C-26 45 -26 45 -26 47 C-25.21625 47.309375 -24.4325 47.61875 -23.625 47.9375 C-21 49 -21 49 -19 50 C-12.74678678 50.53907011 -8.13417074 49.78866392 -3 46 C0.51019011 41.28318204 0.46993057 36.64960972 0 31 C-0.32635698 29.33195323 -0.65725594 27.66475686 -1 26 C-0.67 25.01 -0.34 24.02 0 23 C-1.258125 23.061875 -2.51625 23.12375 -3.8125 23.1875 C-7.73489612 23.17368875 -7.73489612 23.17368875 -9.8125 21.8125 C-11.27747257 19.57648924 -12.68035773 17.32508401 -14 15 C-15.65 15.33 -17.3 15.66 -19 16 C-18.67 14.35 -18.34 12.7 -18 11 C-15.125 10.875 -15.125 10.875 -12 11 C-10 13 -10 13 -9.875 16.125 C-9.91625 17.07375 -9.9575 18.0225 -10 19 C-6.37 19 -2.74 19 1 19 C0.84402344 18.21496094 0.68804688 17.42992188 0.52734375 16.62109375 C-0.56119217 10.74588334 -1.33021084 5.85292771 0 0 Z M1 22 C1 24.31 1 26.62 1 29 C1.33 29 1.66 29 2 29 C2 26.69 2 24.38 2 22 C1.67 22 1.34 22 1 22 Z " fill="#132E37" transform="translate(31,1)"/>
<path d="M0 0 C3.96 0 7.92 0 12 0 C12 16.83 12 33.66 12 51 C8.37 51 4.74 51 1 51 C-3.455 41.595 -3.455 41.595 -8 32 C-8.33 38.27 -8.66 44.54 -9 51 C-12.3 51 -15.6 51 -19 51 C-19 50.34 -19 49.68 -19 49 C-16.69 49 -14.38 49 -12 49 C-12 39.76 -12 30.52 -12 21 C-9.08403768 23.91596232 -7.97235153 25.82830322 -6.29296875 29.5078125 C-5.78830078 30.57644531 -5.28363281 31.64507812 -4.76367188 32.74609375 C-3.71197538 35.00065997 -2.67290278 37.26115761 -1.64648438 39.52734375 C-1.13794922 40.59339844 -0.62941406 41.65945312 -0.10546875 42.7578125 C0.34675049 43.7389502 0.79896973 44.72008789 1.26489258 45.73095703 C3.14622639 48.72705687 3.14622639 48.72705687 9 49 C9 33.82 9 18.64 9 3 C6.69 2.67 4.38 2.34 2 2 C2.01047363 2.62567871 2.02094727 3.25135742 2.03173828 3.89599609 C2.07323191 6.7222901 2.09930473 9.54852011 2.125 12.375 C2.14175781 13.35984375 2.15851562 14.3446875 2.17578125 15.359375 C2.18222656 16.30039062 2.18867187 17.24140625 2.1953125 18.2109375 C2.20578613 19.08024902 2.21625977 19.94956055 2.22705078 20.84521484 C2 23 2 23 0 25 C-1.36698387 22.21443118 -2.71634538 19.42068672 -4.0625 16.625 C-4.45244141 15.8309375 -4.84238281 15.036875 -5.24414062 14.21875 C-5.60830078 13.45820313 -5.97246094 12.69765625 -6.34765625 11.9140625 C-6.68804932 11.2123291 -7.02844238 10.5105957 -7.37915039 9.78759766 C-7.58403076 9.19769043 -7.78891113 8.6077832 -8 8 C-7.67 7.34 -7.34 6.68 -7 6 C-5.02 9.96 -3.04 13.92 -1 18 C-0.67 12.06 -0.34 6.12 0 0 Z " fill="#7B8380" transform="translate(52,1)"/>
<path d="M0 0 C2.8284198 2.34354783 4.46767682 4.5639451 6.1875 7.8125 C6.4375 11.1875 6.4375 11.1875 6.1875 13.8125 C3.8775 13.8125 1.5675 13.8125 -0.8125 13.8125 C-1.10125 13.02875 -1.39 12.245 -1.6875 11.4375 C-2.66162254 8.71578368 -2.66162254 8.71578368 -4.8125 6.8125 C-8.35428598 6.56246036 -8.35428598 6.56246036 -11.8125 6.8125 C-13.09606708 7.9123799 -13.09606708 7.9123799 -13.375 10.5625 C-13.18026324 13.8457203 -13.18026324 13.8457203 -11.02734375 15.21484375 C-9.56288746 16.06458999 -8.07372313 16.87323623 -6.5625 17.63671875 C-5.985 18.02472656 -5.4075 18.41273437 -4.8125 18.8125 C-4.8125 19.8025 -4.8125 20.7925 -4.8125 21.8125 C-3.4925 22.4725 -2.1725 23.1325 -0.8125 23.8125 C-4.46619363 23.8125 -6.18537997 22.74558433 -9.375 21 C-10.34566406 20.47792969 -11.31632813 19.95585937 -12.31640625 19.41796875 C-14.8125 17.8125 -14.8125 17.8125 -16.8125 14.8125 C-16.89155064 12.48050612 -16.90048769 10.14417378 -16.8125 7.8125 C-18.10774348 8.90604906 -18.10774348 8.90604906 -18.1875 11.5625 C-17.79264546 14.98457266 -17.1311623 16.24339376 -14.58984375 18.51953125 C-11.49416959 20.77154915 -8.17068137 22.62892228 -4.82421875 24.48046875 C-4.16035156 24.92003906 -3.49648438 25.35960938 -2.8125 25.8125 C-2.8125 26.4725 -2.8125 27.1325 -2.8125 27.8125 C-7.04036917 27.23492224 -9.91501786 25.78402 -13.5 23.5 C-14.45261719 22.90574219 -15.40523437 22.31148437 -16.38671875 21.69921875 C-19.49157083 19.2843338 -20.54643783 17.51406041 -21.1484375 13.6640625 C-21.24412704 8.20975865 -20.55648185 5.06242535 -16.8125 0.8125 C-11.77009456 -3.65363053 -5.81732081 -2.45620212 0 0 Z " fill="#173034" transform="translate(23.8125,4.1875)"/>
<path d="M0 0 C2.64 0 5.28 0 8 0 C8.12375 0.53625 8.2475 1.0725 8.375 1.625 C10.6693813 10.34364893 14.8572337 18.04886109 19 26 C19.33 26.66 19.66 27.32 20 28 C20.66 23.38 21.32 18.76 22 14 C22.33 14 22.66 14 23 14 C23 22.58 23 31.16 23 40 C20.87011921 37.16015894 19.43699015 35.09799506 17.9921875 31.99609375 C17.64542969 31.25552734 17.29867187 30.51496094 16.94140625 29.75195312 C16.58949219 28.98818359 16.23757812 28.22441406 15.875 27.4375 C15.51535156 26.66986328 15.15570313 25.90222656 14.78515625 25.11132812 C13.37810835 22.08907355 12.0555691 19.1667073 11 16 C10.01 15.67 9.02 15.34 8 15 C7.34 13.35 6.68 11.7 6 10 C5.67 21.55 5.34 33.1 5 45 C4.34 45 3.68 45 3 45 C3 31.47 3 17.94 3 4 C4.32 4 5.64 4 7 4 C7 3.34 7 2.68 7 2 C4.69 2 2.38 2 0 2 C0 1.34 0 0.68 0 0 Z " fill="#34464C" transform="translate(33,2)"/>
<path d="M0 0 C0.9590625 -0.01675781 1.918125 -0.03351562 2.90625 -0.05078125 C5.90821314 0.36967443 6.64810382 0.99198375 8.5 3.3125 C9.16 3.9725 9.82 4.6325 10.5 5.3125 C10.83 6.3025 11.16 7.2925 11.5 8.3125 C11.850625 9.240625 12.20125 10.16875 12.5625 11.125 C13.51530227 14.36452772 13.65974803 16.95779127 13.5 20.3125 C9.87 20.3125 6.24 20.3125 2.5 20.3125 C1.84 18.0025 1.18 15.6925 0.5 13.3125 C-1.48 13.3125 -3.46 13.3125 -5.5 13.3125 C-5.17 14.9625 -4.84 16.6125 -4.5 18.3125 C-2.52 18.3125 -0.54 18.3125 1.5 18.3125 C1.561875 18.93125 1.62375 19.55 1.6875 20.1875 C2.32051688 22.56852845 2.32051688 22.56852845 4.9375 23.5 C5.783125 23.768125 6.62875 24.03625 7.5 24.3125 C10.80982886 25.96741443 12.17704593 28.99893281 13.5 32.3125 C14.33779348 36.97785979 13.99929784 40.95671561 11.8125 45.1875 C9.49643601 48.3173162 8.0690155 49.83266431 4.5 51.3125 C1.6875 51.5 1.6875 51.5 -0.5 51.3125 C0.03625 51.085625 0.5725 50.85875 1.125 50.625 C5.24700263 48.34705118 8.96706157 45.91131529 10.5 41.3125 C10.80753109 39.19820205 10.80753109 39.19820205 10.875 36.9375 C10.94847656 35.81214844 10.94847656 35.81214844 11.0234375 34.6640625 C9.9765883 29.9610534 6.0240128 27.66266969 2.203125 25.109375 C1.05643545 24.41979404 -0.0946785 23.7375193 -1.25 23.0625 C-7.42567568 19.38682432 -7.42567568 19.38682432 -8.5 18.3125 C-8.6875 15.375 -8.6875 15.375 -8.5 12.3125 C-6.5 10.3125 -6.5 10.3125 -3.125 9.9375 C0.5 10.3125 0.5 10.3125 2.9375 12.0625 C4.5 14.3125 4.5 14.3125 4.5 18.3125 C6.81 18.3125 9.12 18.3125 11.5 18.3125 C10.41727394 12.98909686 9.57756374 9.16353242 5.5 5.3125 C0.97822245 3.25714657 -3.60631703 2.81874307 -8.5 2.3125 C-5.16602694 0.08985129 -3.90485109 0.01574537 0 0 Z " fill="#909798" transform="translate(18.5,-0.3125)"/>
<path d="M0 0 C0 3 0 3 -0.25 6.4375 C-0.29381831 9.92108725 -0.29381831 9.92108725 1.375 12.125 C5.31930814 14.94236296 9.61447993 16.9578876 14 19 C13.01 18.34 12.02 17.68 11 17 C11 16.34 11 15.68 11 15 C15.47832188 16.53542464 19.80427026 18.60854052 22 23 C22.42822405 27.19165463 22.36230485 30.93572951 21 34.9375 C17.59967825 38.44408181 13.5514577 38.92026695 8.875 39.06640625 C5.06234578 38.82811536 3.06588594 38.05186766 0.0625 35.6875 C-1.78261037 33.28326527 -2.67099252 31.9610673 -3 29 C-1.31247439 30.68752561 0.14241944 32.20769502 1.5 34.1875 C5.57592236 37.14254371 10.12758284 36.30242589 15 36 C14.6596875 35.40316406 14.319375 34.80632813 13.96875 34.19140625 C12.65052509 31.20945392 13.46220665 29.1595359 14 26 C13.34 25.01 12.68 24.02 12 23 C12 22.34 12 21.68 12 21 C11.25234375 20.62488281 10.5046875 20.24976562 9.734375 19.86328125 C-0.65648202 14.46384377 -0.65648202 14.46384377 -3 10 C-3.51518691 6.39369166 -3.45380713 4.71852796 -1.5 1.625 C-1.005 1.08875 -0.51 0.5525 0 0 Z " fill="#5D767C" transform="translate(8,9)"/>
<path d="M0 0 C0.33 0 0.66 0 1 0 C1 13.86 1 27.72 1 42 C-0.65 42 -2.3 42 -4 42 C-5.58475045 39.00074658 -7.16753521 36.00045992 -8.75 33 C-9.1934375 32.16082031 -9.636875 31.32164063 -10.09375 30.45703125 C-12.79369246 25.33508159 -15.42985454 20.18833101 -18 15 C-18.33 19.29 -18.66 23.58 -19 28 C-19.33 28 -19.66 28 -20 28 C-20 21.07 -20 14.14 -20 7 C-19.34 7 -18.68 7 -18 7 C-17.50371094 7.99257812 -17.00742187 8.98515625 -16.49609375 10.0078125 C-16.17060547 10.65862793 -15.84511719 11.30944336 -15.50976562 11.97998047 C-14.79049553 13.4188482 -14.0717518 14.85797917 -13.35351562 16.29736328 C-11.55115842 19.90764052 -9.74194624 23.51393026 -7.91015625 27.109375 C-7.58797119 27.74472168 -7.26578613 28.38006836 -6.93383789 29.03466797 C-6.04178949 30.79264466 -5.14598621 32.54871452 -4.25 34.3046875 C-3 37 -3 37 -3 39 C-2.34 39 -1.68 39 -1 39 C-1.00785522 37.81410278 -1.00785522 37.81410278 -1.01586914 36.60424805 C-1.03686642 32.96534036 -1.04973177 29.3264455 -1.0625 25.6875 C-1.07087891 24.44419922 -1.07925781 23.20089844 -1.08789062 21.91992188 C-1.1072306 14.55138969 -0.83903809 7.32242824 0 0 Z " fill="#13323B" transform="translate(59,8)"/>
<path d="M0 0 C2.92375519 2.92375519 4.0088746 4.81178503 5.671875 8.5078125 C6.42210937 10.11076172 6.42210937 10.11076172 7.1875 11.74609375 C8.22941609 13.9992373 9.2555001 16.25976956 10.265625 18.52734375 C12.59480878 24.13480284 12.59480878 24.13480284 16.95117188 27.96386719 C19.0795853 28.34138284 19.0795853 28.34138284 22 28 C22 26.02 22 24.04 22 22 C22.33 22 22.66 22 23 22 C23 24.64 23 27.28 23 30 C19.7 30 16.4 30 13 30 C8.545 20.595 8.545 20.595 4 11 C3.67 17.27 3.34 23.54 3 30 C-0.3 30 -3.6 30 -7 30 C-7 29.34 -7 28.68 -7 28 C-4.69 28 -2.38 28 0 28 C0 18.76 0 9.52 0 0 Z " fill="#848889" transform="translate(40,22)"/>
<path d="M0 0 C2.31 0 4.62 0 7 0 C7.350625 1.134375 7.70125 2.26875 8.0625 3.4375 C8.81119771 5.39192597 8.81119771 5.39192597 10 7 C13.42243314 8.00082535 13.42243314 8.00082535 17 8 C18.33917261 8.30903983 19.67653254 8.62942911 21 9 C21 9.66 21 10.32 21 11 C17.5321507 12.73392465 13.78231256 12.61299548 10 12 C6.9375 9.5 6.9375 9.5 5 7 C5.98868329 9.69640897 6.60898715 10.79332178 9.1875 12.15625 C12.49019845 13.14705954 14.89611175 13.00042728 18.3125 12.625 C19.38113281 12.51414062 20.44976563 12.40328125 21.55078125 12.2890625 C22.76314453 12.14597656 22.76314453 12.14597656 24 12 C20.62967905 15.86708027 20.62967905 15.86708027 17.81640625 16.4609375 C11.63465437 16.22523812 7.88653634 15.80078469 3.25 11.375 C0.41205878 7.78086755 0.23239474 4.49296495 0 0 Z " fill="#122D2E" transform="translate(2,34)"/>
<path d="M0 0 C0 0.66 0 1.32 0 2 C0.66 2 1.32 2 2 2 C2.33 2.99 2.66 3.98 3 5 C2.01 4.67 1.02 4.34 0 4 C-6.12294994 3.16054994 -6.12294994 3.16054994 -11.765625 5.12890625 C-13.99846574 7.5863143 -14.966964 9.83812361 -15.625 13.0625 C-14.79826714 16.94814443 -13.11088515 18.73691652 -10 21 C-7.36792845 22.61942723 -4.71582177 24.17183 -2.01171875 25.66796875 C-1.34785156 26.10753906 -0.68398438 26.54710938 0 27 C0 27.66 0 28.32 0 29 C-4.22786917 28.42242224 -7.10251786 26.97152 -10.6875 24.6875 C-11.64011719 24.09324219 -12.59273437 23.49898437 -13.57421875 22.88671875 C-16.67907083 20.4718338 -17.73393783 18.70156041 -18.3359375 14.8515625 C-18.43162704 9.39725865 -17.74398185 6.24992535 -14 2 C-9.55763552 -1.93466568 -5.46061312 -0.98743113 0 0 Z " fill="#17292E" transform="translate(21,3)"/>
<path d="M0 0 C3.96 0 7.92 0 12 0 C12.99 1.98 13.98 3.96 15 6 C15.33 4.02 15.66 2.04 16 0 C16.99 0 17.98 0 19 0 C19 6.6 19 13.2 19 20 C18.34 18.68 17.68 17.36 17 16 C15.40385794 13.27325731 13.75315126 10.62972689 12 8 C14.31 12.95 16.62 17.9 19 23 C19.66 23 20.32 23 21 23 C21 25.31 21 27.62 21 30 C16.92474174 26.34713645 15.11899281 21.49462819 12.8125 16.625 C12.34908203 15.67882813 11.88566406 14.73265625 11.40820312 13.7578125 C10.97056641 12.84 10.53292969 11.9221875 10.08203125 10.9765625 C9.68218018 10.14205566 9.2823291 9.30754883 8.87036133 8.44775391 C7.93165169 5.80778117 7.83472548 3.78020893 8 1 C5.36 1 2.72 1 0 1 C0 0.67 0 0.34 0 0 Z " fill="#717F80" transform="translate(33,1)"/>
<path d="M0 0 C2.04170545 2.72227393 3.4467402 4.64987987 4.82421875 7.6015625 C5.13037109 8.25640625 5.43652344 8.91125 5.75195312 9.5859375 C6.06068359 10.25882813 6.36941406 10.93171875 6.6875 11.625 C7.00783203 12.305625 7.32816406 12.98625 7.65820312 13.6875 C10 18.74058835 10 18.74058835 10 21 C13.63 21 17.26 21 21 21 C21 21.33 21 21.66 21 22 C16.71 22 12.42 22 8 22 C6.68 19.36 5.36 16.72 4 14 C3.67 16.64 3.34 19.28 3 22 C-1.95 22 -6.9 22 -12 22 C-11.67 20.35 -11.34 18.7 -11 17 C-10.67 18.32 -10.34 19.64 -10 21 C-6.7 21 -3.4 21 0 21 C0 14.07 0 7.14 0 0 Z " fill="#080B0A" transform="translate(43,31)"/>
<path d="M0 0 C0.33 0 0.66 0 1 0 C1 10.56 1 21.12 1 32 C0.67 32 0.34 32 0 32 C-0.36294314 29.8973294 -0.71506972 27.79278943 -1.0625 25.6875 C-1.35833984 23.92986328 -1.35833984 23.92986328 -1.66015625 22.13671875 C-2 19 -2 19 -1 16 C-2.258125 16.061875 -3.51625 16.12375 -4.8125 16.1875 C-8.73489612 16.17368875 -8.73489612 16.17368875 -10.8125 14.8125 C-12.27747257 12.57648924 -13.68035773 10.32508401 -15 8 C-16.65 8.33 -18.3 8.66 -20 9 C-19.67 7.35 -19.34 5.7 -19 4 C-16.125 3.875 -16.125 3.875 -13 4 C-11 6 -11 6 -10.875 9.125 C-10.91625 10.07375 -10.9575 11.0225 -11 12 C-7.37 12 -3.74 12 0 12 C-0.185625 10.39125 -0.37125 8.7825 -0.5625 7.125 C-1.125 2.25 -1.125 2.25 0 0 Z " fill="#0B0A0D" transform="translate(32,8)"/>
<path d="M0 0 C0.33 0.99 0.66 1.98 1 3 C3.64 3 6.28 3 9 3 C9 3.66 9 4.32 9 5 C7.68 5 6.36 5 5 5 C5 15.89 5 26.78 5 38 C4.01 38.495 4.01 38.495 3 39 C2.34 29.1 1.68 19.2 1 9 C0.01 9.495 0.01 9.495 -1 10 C-0.67 6.7 -0.34 3.4 0 0 Z " fill="#1A3643" transform="translate(31,1)"/>
<path d="M0 0 C0.268125 0.5775 0.53625 1.155 0.8125 1.75 C1.95053246 4.05747896 1.95053246 4.05747896 3.625 6.125 C5 8 5 8 5 10 C5.78375 10.309375 6.5675 10.61875 7.375 10.9375 C10 12 10 12 12 13 C18.38930359 13.55080203 22.64559174 12.57341106 28 9 C29.84346223 7.4243531 31.38294426 5.81918771 33 4 C32.54449163 8.89671502 31.71786231 11.6958464 28 15 C24.36890901 15.81150553 20.83304777 15.78867586 17.125 15.75 C15.65353516 15.80414063 15.65353516 15.80414063 14.15234375 15.859375 C7.19225486 15.859375 7.19225486 15.859375 3.98095703 13.54467773 C1.01924273 10.29379163 -0.3375131 8.0239342 -0.375 3.5625 C-0.25125 2.386875 -0.1275 1.21125 0 0 Z " fill="#080A0B" transform="translate(0,38)"/>
<path d="M0 0 C0.33 0 0.66 0 1 0 C1.08636719 0.66386719 1.17273438 1.32773438 1.26171875 2.01171875 C2.20146579 7.91746848 3.00573134 11.30424119 8 15 C11.12811607 16.77039814 14.26012176 18.50523369 17.453125 20.15625 C20 22 20 22 20.859375 24.71875 C20.92898437 25.84796875 20.92898437 25.84796875 21 27 C19.02 26.01 17.04 25.02 15 24 C14.67 24.99 14.34 25.98 14 27 C13.01 26.67 12.02 26.34 11 26 C10.67 24.02 10.34 22.04 10 20 C6.7 19.67 3.4 19.34 0 19 C1.32 18.34 2.64 17.68 4 17 C3.01 16.13375 3.01 16.13375 2 15.25 C-1.01105915 10.35702888 -0.32185363 5.60561742 0 0 Z " fill="#0C0E0D" transform="translate(0,12)"/>
<path d="M0 0 C3.96 0 7.92 0 12 0 C11.67 6.27 11.34 12.54 11 19 C10.67 19 10.34 19 10 19 C10 13.39 10 7.78 10 2 C7.36 2 4.72 2 2 2 C2.01047363 2.62567871 2.02094727 3.25135742 2.03173828 3.89599609 C2.07323191 6.7222901 2.09930473 9.54852011 2.125 12.375 C2.14175781 13.35984375 2.15851562 14.3446875 2.17578125 15.359375 C2.18222656 16.30039062 2.18867187 17.24140625 2.1953125 18.2109375 C2.20578613 19.08024902 2.21625977 19.94956055 2.22705078 20.84521484 C2 23 2 23 0 25 C-1.36698387 22.21443118 -2.71634538 19.42068672 -4.0625 16.625 C-4.64741211 15.43390625 -4.64741211 15.43390625 -5.24414062 14.21875 C-5.60830078 13.45820313 -5.97246094 12.69765625 -6.34765625 11.9140625 C-6.68804932 11.2123291 -7.02844238 10.5105957 -7.37915039 9.78759766 C-7.58403076 9.19769043 -7.78891113 8.6077832 -8 8 C-7.67 7.34 -7.34 6.68 -7 6 C-5.02 9.96 -3.04 13.92 -1 18 C-0.505 9.09 -0.505 9.09 0 0 Z " fill="#BAC0BD" transform="translate(52,1)"/>
<path d="M0 0 C4.5220607 2.26103035 5.22520129 3.42288753 7 8 C6.67 8.99 6.34 9.98 6 11 C4.515 8.03 4.515 8.03 3 5 C2.67 16.55 2.34 28.1 2 40 C1.34 40 0.68 40 0 40 C0 26.8 0 13.6 0 0 Z " fill="#879AA0" transform="translate(36,7)"/>
<path d="M0 0 C0.33 0 0.66 0 1 0 C1 13.2 1 26.4 1 40 C0.34 40 -0.32 40 -1 40 C-2.98904303 36.10913304 -4.96447868 32.21151262 -6.9375 28.3125 C-7.50146484 27.20970703 -8.06542969 26.10691406 -8.64648438 24.97070312 C-9.18466797 23.90400391 -9.72285156 22.83730469 -10.27734375 21.73828125 C-10.77484131 20.75899658 -11.27233887 19.77971191 -11.78491211 18.77075195 C-12.93467181 16.14896716 -13.56570443 13.81954583 -14 11 C-9.97997382 15.45337762 -7.72037063 20.41855133 -5.25 25.8125 C-3.8475 28.844375 -2.445 31.87625 -1 35 C-0.67 23.45 -0.34 11.9 0 0 Z " fill="#96ACB1" transform="translate(57,7)"/>
<path d="M0 0 C8.33622278 2.71833351 8.33622278 2.71833351 11.1640625 7.90625 C12.90537725 12.26767387 12.86009938 16.61747872 11.26953125 21.0234375 C9.24512311 24.94004753 7.06131056 27.31604196 3 29 C0.1875 29.1875 0.1875 29.1875 -2 29 C-1.195625 28.6596875 -1.195625 28.6596875 -0.375 28.3125 C3.74700263 26.03455118 7.46706157 23.59881529 9 19 C9.40158227 15.936501 9.48437548 13.05694745 9 10 C6.78468119 7.16931485 4.56935596 5.41547597 1.6875 3.3125 C1.130625 2.879375 0.57375 2.44625 0 2 C0 1.34 0 0.68 0 0 Z " fill="#B8C0C0" transform="translate(20,22)"/>
<path d="M0 0 C2.97 0.495 2.97 0.495 6 1 C4.30146995 2.69853005 2.59879391 4.38940591 0.875 6.0625 C-1.85232293 8.8807337 -2.15575808 10.55327254 -2.1875 14.375 C-2.20167969 15.14585938 -2.21585937 15.91671875 -2.23046875 16.7109375 C-1.8221852 20.76609275 -0.44844154 22.61562154 2.625 25.25 C3.40875 25.8275 4.1925 26.405 5 27 C1.00523669 27 -0.1421336 25.71130915 -3 23 C-6.07233898 17.87943503 -5.43076241 11.63841977 -4.5 5.9375 C-4.335 5.298125 -4.17 4.65875 -4 4 C-3.01 3.67 -2.02 3.34 -1 3 C-0.67 2.01 -0.34 1.02 0 0 Z " fill="#717779" transform="translate(6,1)"/>
<path d="M0 0 C0.33 0 0.66 0 1 0 C1 8.58 1 17.16 1 26 C-1.28822939 22.94902748 -3.03157205 20.28843451 -4.75 16.9375 C-5.19859375 16.08027344 -5.6471875 15.22304688 -6.109375 14.33984375 C-7 12 -7 12 -6 9 C-4.68 10.65 -3.36 12.3 -2 14 C-1.34 9.38 -0.68 4.76 0 0 Z " fill="#1B3F52" transform="translate(55,16)"/>
<path d="M0 0 C2.9664161 0.3178303 4.01076795 1.0104603 6.1875 3.125 C8.30075583 6.47706098 8.69282238 9.08348532 9 13 C8.34 12.01 7.68 11.02 7 10 C6.67 10.66 6.34 11.32 6 12 C5.34 12 4.68 12 4 12 C3.34 9.69 2.68 7.38 2 5 C-1.68050741 3.82223763 -5.16162601 3.93021138 -9 4 C-9.99 4 -10.98 4 -12 4 C-10 2 -10 2 -7.6875 1.76953125 C-6.3571875 1.79080078 -6.3571875 1.79080078 -5 1.8125 C-3.6696875 1.82216797 -3.6696875 1.82216797 -2.3125 1.83203125 C0 2 0 2 2 3 C2 2.34 2 1.68 2 1 C1.34 0.67 0.68 0.34 0 0 Z " fill="#46636B" transform="translate(21,4)"/>
<path d="M0 0 C0.33 0.66 0.66 1.32 1 2 C1.66 2 2.32 2 3 2 C3.6496875 3.175625 3.6496875 3.175625 4.3125 4.375 C6.35425849 7.55106876 7.42471586 7.95846064 11 9 C14.13388899 9.02920459 14.13388899 9.02920459 17.3125 8.625 C18.38113281 8.51414062 19.44976563 8.40328125 20.55078125 8.2890625 C21.76314453 8.14597656 21.76314453 8.14597656 23 8 C19.62967905 11.86708027 19.62967905 11.86708027 16.81640625 12.4609375 C7.22463052 12.09521988 7.22463052 12.09521988 3.58984375 8.671875 C0.74281383 5.53141859 0 4.3434125 0 0 Z " fill="#132E35" transform="translate(3,38)"/>
<path d="M0 0 C0.66 0 1.32 0 2 0 C3.19725883 2.28703308 4.38297018 4.57884862 5.5625 6.875 C5.90474609 7.52597656 6.24699219 8.17695313 6.59960938 8.84765625 C7.46082891 10.53529857 8.23686703 12.26579593 9 14 C8.67 14.66 8.34 15.32 8 16 C7.34 16 6.68 16 6 16 C4.68 13.36 3.36 10.72 2 8 C1.67 12.29 1.34 16.58 1 21 C0.67 21 0.34 21 0 21 C0 14.07 0 7.14 0 0 Z " fill="#264B55" transform="translate(39,15)"/>
<path d="M0 0 C0.33 0 0.66 0 1 0 C1.06058594 1.03640625 1.12117188 2.0728125 1.18359375 3.140625 C1.26803371 4.51042873 1.35267997 5.88021975 1.4375 7.25 C1.47681641 7.93191406 1.51613281 8.61382812 1.55664062 9.31640625 C1.76797766 12.66528537 2.14780223 15.76164848 3 19 C3.12205329 21.67540816 3.04467313 24.31961238 3 27 C-0.3 27 -3.6 27 -7 27 C-7 26.34 -7 25.68 -7 25 C-4.69 25 -2.38 25 0 25 C0 16.75 0 8.5 0 0 Z " fill="#6B7576" transform="translate(40,25)"/>
<path d="M0 0 C1.32 0.33 2.64 0.66 4 1 C3.34 1 2.68 1 2 1 C2.39994006 2.58764086 2.82075935 4.17002911 3.25 5.75 C3.48203125 6.63171875 3.7140625 7.5134375 3.953125 8.421875 C5.19510875 11.48049169 6.41428039 12.95297198 9 15 C11.78652118 16.10894997 11.78652118 16.10894997 14.75 16.75 C15.73484375 16.99234375 16.7196875 17.2346875 17.734375 17.484375 C18.48203125 17.65453125 19.2296875 17.8246875 20 18 C20 18.33 20 18.66 20 19 C13.86392812 19.43060154 9.85070373 18.95196928 5 15 C0.85746888 10.31239899 0.2678321 6.02622231 0 0 Z " fill="#697073" transform="translate(0,33)"/>
<path d="M0 0 C0.99 0 1.98 0 3 0 C3 6.6 3 13.2 3 20 C2.34 18.68 1.68 17.36 1 16 C0.505 15.175 0.01 14.35 -0.5 13.5 C-4 7.66666667 -4 7.66666667 -4 4 C-3.34 4 -2.68 4 -2 4 C-1.67 4.66 -1.34 5.32 -1 6 C-0.67 4.02 -0.34 2.04 0 0 Z " fill="#585A57" transform="translate(49,1)"/>
<path d="M0 0 C0.33 0 0.66 0 1 0 C1 10.56 1 21.12 1 32 C0.67 32 0.34 32 0 32 C-0.36294314 29.8973294 -0.71506972 27.79278943 -1.0625 25.6875 C-1.35833984 23.92986328 -1.35833984 23.92986328 -1.66015625 22.13671875 C-2 19 -2 19 -1 16 C-1.99 16 -2.98 16 -4 16 C-4 14.68 -4 13.36 -4 12 C-2.68 12 -1.36 12 0 12 C-0.08378906 11.30132812 -0.16757812 10.60265625 -0.25390625 9.8828125 C-0.35574219 8.97273438 -0.45757813 8.06265625 -0.5625 7.125 C-0.66691406 6.22007813 -0.77132813 5.31515625 -0.87890625 4.3828125 C-1 2 -1 2 0 0 Z " fill="#0A1515" transform="translate(32,8)"/>
<path d="M0 0 C4.00847373 1.37433385 7.02725496 2.94467871 10 6 C10.8125 9.75 10.8125 9.75 11 13 C10.34 13 9.68 13 9 13 C8.67 13.99 8.34 14.98 8 16 C7.9071875 14.453125 7.9071875 14.453125 7.8125 12.875 C6.80509918 8.07047303 5.38220746 6.46470032 2 3 C1.34 2.67 0.68 2.34 0 2 C0 1.34 0 0.68 0 0 Z " fill="#375357" transform="translate(19,24)"/>
<path d="M0 0 C3.125 0.375 3.125 0.375 6 1 C6 1.33 6 1.66 6 2 C4.35 2.33 2.7 2.66 1 3 C1.33 4.65 1.66 6.3 2 8 C3.98 8 5.96 8 8 8 C8 9.98 8 11.96 8 14 C6.70590711 13.38003922 5.41480327 12.75383647 4.125 12.125 C3.40570312 11.77695312 2.68640625 11.42890625 1.9453125 11.0703125 C0 10 0 10 -2 8 C-2.25 5 -2.25 5 -2 2 C-1.34 1.34 -0.68 0.68 0 0 Z " fill="#7E858A" transform="translate(12,10)"/>
<path d="M0 0 C2.2731701 2.19823043 3.87552628 4.00140342 5 7 C4.67 7.99 4.34 8.98 4 10 C3.77674186 12.05893621 3.59294241 14.12233653 3.4375 16.1875 C3.35371094 17.27417969 3.26992188 18.36085938 3.18359375 19.48046875 C3.12300781 20.31191406 3.06242187 21.14335938 3 22 C1.38364512 19.13026116 0.7266582 16.95535797 0.5859375 13.671875 C0.54726563 12.87265625 0.50859375 12.0734375 0.46875 11.25 C0.4378125 10.425 0.406875 9.6 0.375 8.75 C0.33632813 7.90953125 0.29765625 7.0690625 0.2578125 6.203125 C0.16384164 4.13576618 0.08084436 2.06791373 0 0 Z " fill="#939DA0" transform="translate(40,22)"/>
<path d="M0 0 C0.66 0.66 1.32 1.32 2 2 C1.91764607 6.36475845 1.46867506 8.44499006 -1.375 11.8125 C-5.17166327 14.97638606 -7.07191565 16.26638294 -12 16 C-11.195625 15.6596875 -11.195625 15.6596875 -10.375 15.3125 C-4.52668369 12.12192827 -4.52668369 12.12192827 -1.171875 6.671875 C-0.68279439 4.45005166 -0.28512951 2.25645598 0 0 Z " fill="#909B98" transform="translate(30,35)"/>
<path d="M0 0 C2.31 0 4.62 0 7 0 C7.99 2.64 8.98 5.28 10 8 C8.68 7.34 7.36 6.68 6 6 C6 4.68 6 3.36 6 2 C5.01 3.485 5.01 3.485 4 5 C3.01 5.495 3.01 5.495 2 6 C2 5.34 2 4.68 2 4 C1.34 4 0.68 4 0 4 C0 2.68 0 1.36 0 0 Z " fill="#213637" transform="translate(2,34)"/>
<path d="M0 0 C0.66 0 1.32 0 2 0 C3.03033882 2.12040742 4.04902854 4.24647908 5.0625 6.375 C5.91521484 8.15003906 5.91521484 8.15003906 6.78515625 9.9609375 C7.18605469 10.96382812 7.58695313 11.96671875 8 13 C7.67 13.66 7.34 14.32 7 15 C3.05410415 12.36940277 1.67724757 9.36418148 0 5 C-0.25 2 -0.25 2 0 0 Z " fill="#2E4D54" transform="translate(43,13)"/>
<path d="M0 0 C0.99 0 1.98 0 3 0 C6 5.75 6 5.75 6 8 C9.63 8 13.26 8 17 8 C17 8.33 17 8.66 17 9 C12.71 9 8.42 9 4 9 C2.68 6.03 1.36 3.06 0 0 Z " fill="#070607" transform="translate(47,44)"/>
<path d="M0 0 C0.33 0 0.66 0 1 0 C1 4.95 1 9.9 1 15 C-1.71843438 11.37542083 -2.41789544 10.19115285 -3 6 C-2.34 5.67 -1.68 5.34 -1 5 C-0.34444881 2.47266765 -0.34444881 2.47266765 0 0 Z " fill="#0B2A34" transform="translate(55,27)"/>
<path d="M0 0 C0.33 0 0.66 0 1 0 C1.10957031 0.66386719 1.21914063 1.32773438 1.33203125 2.01171875 C2.21136023 6.90879478 2.99451714 10.90161428 6 15 C5.01 15.33 4.02 15.66 3 16 C-0.13107836 12.61416198 -0.33550778 10.28890538 -0.1875 5.75 C-0.14689453 4.13351563 -0.14689453 4.13351563 -0.10546875 2.484375 C-0.07066406 1.66453125 -0.03585937 0.8446875 0 0 Z " fill="#0C0A0D" transform="translate(0,12)"/>
<path d="M0 0 C3.36591427 2.72478774 4.44226276 6.06856792 6 10 C5.01 10.33 4.02 10.66 3 11 C2.30034557 9.73581754 1.61565237 8.46334598 0.9375 7.1875 C0.55464844 6.47980469 0.17179687 5.77210937 -0.22265625 5.04296875 C-1 3 -1 3 0 0 Z " fill="#19363A" transform="translate(47,30)"/>
<path d="M0 0 C3.96 0 7.92 0 12 0 C13 4 13 4 12 6 C11.34 6 10.68 6 10 6 C9.835 5.360625 9.67 4.72125 9.5 4.0625 C8.218214 1.83880759 8.218214 1.83880759 6.0859375 1.51171875 C4.06424845 1.2724022 2.03158061 1.13106972 0 1 C0 0.67 0 0.34 0 0 Z " fill="#9A9FA0" transform="translate(33,1)"/>
<path d="M0 0 C0.33 0.66 0.66 1.32 1 2 C1.66 2 2.32 2 3 2 C7 7.41176471 7 7.41176471 7 10 C3.64501065 8.61172854 1.84949545 7.14414226 0 4 C0 2.68 0 1.36 0 0 Z " fill="#0F2523" transform="translate(3,38)"/>
<path d="M0 0 C3.40312738 1.05875074 6.01353231 2.00902154 9 4 C9 4.66 9 5.32 9 6 C5.21213403 5.4739075 2.82847776 4.61896089 0 2 C0 1.34 0 0.68 0 0 Z " fill="#153134" transform="translate(12,26)"/>
<path d="M0 0 C4.75 0.75 4.75 0.75 7 3 C6 4 6 4 3.71484375 4.09765625 C2.34005859 4.08025391 2.34005859 4.08025391 0.9375 4.0625 C0.01839844 4.05347656 -0.90070313 4.04445313 -1.84765625 4.03515625 C-2.55792969 4.02355469 -3.26820313 4.01195312 -4 4 C-2.68 3.34 -1.36 2.68 0 2 C0 1.34 0 0.68 0 0 Z " fill="#424239" transform="translate(4,27)"/>
<path d="M0 0 C-0.33 1.32 -0.66 2.64 -1 4 C-3.31 3.67 -5.62 3.34 -8 3 C-8 2.34 -8 1.68 -8 1 C-2.25 -1.125 -2.25 -1.125 0 0 Z " fill="#919A9F" transform="translate(20,39)"/>
<path d="M0 0 C0.66 0 1.32 0 2 0 C1.6875 3.375 1.6875 3.375 1 7 C0.01 7.66 -0.98 8.32 -2 9 C-2 5.20442119 -1.49821059 3.37097383 0 0 Z " fill="#1E3C43" transform="translate(28,37)"/>
<path d="M0 0 C2.625 0.6875 2.625 0.6875 5 2 C5.33 2.99 5.66 3.98 6 5 C5.01 5.33 4.02 5.66 3 6 C2.34 5.34 1.68 4.68 1 4 C-0.31747324 3.30251417 -1.64914193 2.63040043 -3 2 C-2.01 1.34 -1.02 0.68 0 0 Z " fill="#1F3A39" transform="translate(18,7)"/>
<path d="M0 0 C0 0.66 0 1.32 0 2 C-2.25 2.6875 -2.25 2.6875 -5 3 C-7.3125 1.5625 -7.3125 1.5625 -9 0 C-5.62182575 -0.84454356 -3.32534757 -1.10844919 0 0 Z " fill="#1E3841" transform="translate(23,43)"/>
<path d="M0 0 C1.89213369 2.38573379 3.02391783 4.07175348 4 7 C2.35 7 0.7 7 -1 7 C-1.04254356 5.00045254 -1.04080783 2.99958364 -1 1 C-0.67 0.67 -0.34 0.34 0 0 Z " fill="#212323" transform="translate(46,37)"/>
<path d="M0 0 C3.31832766 0.98652984 4.76548627 1.68731503 6.875 4.5 C7.24625 5.325 7.6175 6.15 8 7 C7.67 7.66 7.34 8.32 7 9 C5.14453125 6.70507812 5.14453125 6.70507812 3.2890625 4.41015625 C2.0333609 2.86733563 2.0333609 2.86733563 0 2 C0 1.34 0 0.68 0 0 Z " fill="#244247" transform="translate(19,24)"/>
<path d="M0 0 C0.33 0.99 0.66 1.98 1 3 C-0.25 4.5 -0.25 4.5 -2 6 C-3.32 6 -4.64 6 -6 6 C-6 5.34 -6 4.68 -6 4 C-4.68 3.67 -3.36 3.34 -2 3 C-2 2.34 -2 1.68 -2 1 C-1.34 0.67 -0.68 0.34 0 0 Z " fill="#000203" transform="translate(30,47)"/>
<path d="M0 0 C3.55007718 3.9050849 4.81819916 6.97734643 6 12 C3.37591634 9.62582907 1.61386598 7.15088121 0 4 C0 2.68 0 1.36 0 0 Z " fill="#7C939C" transform="translate(43,18)"/>
<path d="M0 0 C2.5625 2.25 2.5625 2.25 5 5 C4.8125 7.3125 4.8125 7.3125 4 9 C1.49701566 6.06171403 0.53069061 3.82097239 0 0 Z " fill="#1F3B42" transform="translate(48,25)"/>
<path d="M0 0 C0.66 0.33 1.32 0.66 2 1 C2.4140625 3.06640625 2.4140625 3.06640625 2.625 5.5625 C2.69976563 6.38878906 2.77453125 7.21507812 2.8515625 8.06640625 C2.90054687 8.70449219 2.94953125 9.34257812 3 10 C0.81722366 7.81722366 -0.56742037 5.72872311 -2 3 C-1 1 -1 1 0 0 Z " fill="#141415" transform="translate(19,13)"/>
<path d="M0 0 C-3.625 3 -3.625 3 -7 3 C-7 2.01 -7 1.02 -7 0 C-3.86650268 -1.04449911 -3.01031744 -0.93423645 0 0 Z " fill="#173942" transform="translate(26,47)"/>
<path d="M0 0 C0.99 0.99 1.98 1.98 3 3 C2 6 2 6 0 10 C0 6.7 0 3.4 0 0 Z " fill="#B0BABB" transform="translate(42,26)"/>
<path d="M0 0 C1.98 0 3.96 0 6 0 C3.82575883 2.50037734 2.26954202 3.43628586 -1 4 C-0.67 2.68 -0.34 1.36 0 0 Z " fill="#14252A" transform="translate(12,7)"/>
<path d="" fill="#BFBCB7" transform="translate(0,0)"/>
<path d="M0 0 C2 1 2 1 2 1 Z " fill="#BDBEC1" transform="translate(8,0)"/>
<path d="" fill="#9FABB5" transform="translate(0,0)"/>
<path d="" fill="#F8F8FF" transform="translate(0,0)"/>
<path d="" fill="#6B626F" transform="translate(0,0)"/>
<path d="" fill="#7A7D79" transform="translate(0,0)"/>
<path d="" fill="#7D7A74" transform="translate(0,0)"/>
<path d="" fill="#737C7B" transform="translate(0,0)"/>
<path d="" fill="#83807A" transform="translate(0,0)"/>
<path d="" fill="#FAFFFF" transform="translate(0,0)"/>
</svg>
